<?xml version="1.0" standalone="no"?>
<!DOCTYPE svg PUBLIC "-//W3C//DTD SVG 20010904//EN"
 "http://www.w3.org/TR/2001/REC-SVG-20010904/DTD/svg10.dtd">
<svg version="1.0" xmlns="http://www.w3.org/2000/svg"
 width="172.000000pt" height="172.000000pt" viewBox="0 0 172.000000 172.000000"
 preserveAspectRatio="xMidYMid meet">
<metadata>
Created by potrace 1.11, written by Peter Selinger 2001-2013
</metadata>
<g transform="translate(0.000000,172.000000) scale(0.100000,-0.100000)"
fill="#000000" stroke="none">
<path d="M831 1653 c-11 -38 -56 -183 -99 -323 l-79 -255 -327 -3 c-179 -1
-326 -6 -326 -10 0 -4 117 -97 260 -206 143 -109 260 -201 260 -205 0 -3 -45
-150 -99 -326 -55 -176 -95 -321 -91 -323 5 -2 124 85 264 192 141 108 260
196 266 196 5 0 125 -88 266 -195 141 -108 260 -195 264 -193 5 2 -36 147 -91
323 -54 176 -99 322 -99 326 0 3 117 95 260 205 143 109 260 202 260 206 0 4
-147 9 -326 10 l-327 3 -88 285 c-49 157 -94 302 -99 323 -6 20 -15 37 -20 37
-5 0 -18 -30 -29 -67z m54 -495 c9 -34 19 -68 22 -75 4 -10 -8 -13 -47 -13
-39 0 -51 3 -47 13 3 7 13 41 22 75 10 34 21 62 25 62 4 0 15 -28 25 -62z
m-289 -265 c-3 -10 -8 -30 -12 -45 -3 -16 -9 -28 -13 -28 -6 0 -104 69 -119
85 -3 3 29 5 72 5 69 0 77 -2 72 -17z m395 -78 c16 -49 29 -92 29 -95 0 -9
-148 -120 -160 -120 -6 0 -39 21 -73 48 -33 26 -67 52 -75 58 -13 9 -11 23 12
95 15 46 29 90 32 97 3 9 29 12 105 10 l102 -3 28 -90z m277 90 c-15 -15 -113
-85 -119 -85 -3 0 -9 12 -12 28 -3 15 -9 35 -12 45 -6 15 1 17 71 17 42 0 75
-2 72 -5z m-570 -383 l33 -28 -60 -47 c-34 -26 -63 -47 -65 -47 -4 0 25 102
38 137 8 19 17 16 54 -15z m398 -50 c12 -40 20 -72 18 -72 -2 0 -31 21 -65 47
l-60 47 33 28 c18 15 37 26 43 24 5 -1 19 -35 31 -74z"/>
</g>
</svg>
